<svg width="500" height="500" viewBox="0 0 500 500" fill="none" xmlns="http://www.w3.org/2000/svg">
<path d="M145.833 500C168.845 500 187.5 481.345 187.5 458.333C187.5 435.321 168.845 416.667 145.833 416.667C122.821 416.667 104.167 435.321 104.167 458.333C104.167 481.345 122.821 500 145.833 500Z" fill="#9EAEBE"/>
<path d="M354.167 500C377.179 500 395.833 481.345 395.833 458.333C395.833 435.321 377.179 416.667 354.167 416.667C331.155 416.667 312.5 435.321 312.5 458.333C312.5 481.345 331.155 500 354.167 500Z" fill="#9EAEBE"/>
<path d="M411.458 274.208C408.437 285.212 401.885 294.919 392.81 301.837C383.736 308.755 372.64 312.501 361.229 312.5H150.354C148.651 312.486 147.014 311.838 145.762 310.683C144.51 309.527 143.733 307.947 143.583 306.25L125.75 166.667H218.75C227.038 166.667 234.987 163.374 240.847 157.514C246.708 151.653 250 143.705 250 135.417C250 127.129 246.708 119.18 240.847 113.32C234.987 107.459 227.038 104.167 218.75 104.167H117.771L112.312 61.2292C110.332 44.3631 102.229 28.8109 89.5402 17.5241C76.8517 6.23738 60.4612 0.00152833 43.4792 7.45058e-06H31.25C22.962 7.45058e-06 15.0134 3.29241 9.15291 9.15292C3.2924 15.0134 0 22.962 0 31.25C0 39.538 3.2924 47.4866 9.15291 53.3471C15.0134 59.2076 22.962 62.5 31.25 62.5H43.4792C45.1826 62.5141 46.8198 63.162 48.0715 64.3175C49.3233 65.4729 50.0999 67.0531 50.25 68.75L81.5 313.75C83.4761 330.623 91.5805 346.183 104.274 357.475C116.967 368.766 133.365 375.003 150.354 375H361.229C386.314 374.985 410.701 366.739 430.647 351.528C450.593 336.316 464.996 314.979 471.646 290.792L471.979 289.542C473.254 284.91 473.443 280.047 472.533 275.33C471.624 270.614 469.638 266.17 466.732 262.345C463.826 258.52 460.078 255.416 455.777 253.275C451.477 251.134 446.741 250.014 441.937 250C435.101 249.999 428.452 252.239 423.011 256.379C417.569 260.518 413.636 266.327 411.812 272.917L411.458 274.208Z" fill="#9EAEBE"/>
<path d="M468.75 62.5H437.5V31.25C437.5 22.962 434.208 15.0134 428.347 9.15291C422.487 3.2924 414.538 0 406.25 0C397.962 0 390.013 3.2924 384.153 9.15291C378.292 15.0134 375 22.962 375 31.25V62.5H343.75C335.462 62.5 327.513 65.7924 321.653 71.6529C315.792 77.5134 312.5 85.462 312.5 93.75C312.5 102.038 315.792 109.987 321.653 115.847C327.513 121.708 335.462 125 343.75 125H375V156.25C375 164.538 378.292 172.487 384.153 178.347C390.013 184.208 397.962 187.5 406.25 187.5C414.538 187.5 422.487 184.208 428.347 178.347C434.208 172.487 437.5 164.538 437.5 156.25V125H468.75C477.038 125 484.987 121.708 490.847 115.847C496.708 109.987 500 102.038 500 93.75C500 85.462 496.708 77.5134 490.847 71.6529C484.987 65.7924 477.038 62.5 468.75 62.5Z" fill="#9EAEBE"/>
</svg>
