<svg width="500" height="500" viewBox="0 0 500 500" fill="none" xmlns="http://www.w3.org/2000/svg">
<g clip-path="url(#clip0_134_81)">
<path d="M20.8333 98.9484H77.8333C82.3049 115.401 92.0661 129.925 105.611 140.28C119.156 150.635 135.732 156.245 152.781 156.245C169.831 156.245 186.407 150.635 199.952 140.28C213.496 129.925 223.258 115.401 227.729 98.9484H479.167C484.692 98.9484 489.991 96.7534 493.898 92.8464C497.805 88.9394 500 83.6404 500 78.115C500 72.5897 497.805 67.2906 493.898 63.3836C489.991 59.4766 484.692 57.2817 479.167 57.2817H227.729C223.258 40.829 213.496 26.3047 199.952 15.9498C186.407 5.59487 169.831 -0.0153656 152.781 -0.0153656C135.732 -0.0153656 119.156 5.59487 105.611 15.9498C92.0661 26.3047 82.3049 40.829 77.8333 57.2817H20.8333C15.308 57.2817 10.009 59.4766 6.10194 63.3836C2.19493 67.2906 0 72.5897 0 78.115C0 83.6404 2.19493 88.9394 6.10194 92.8464C10.009 96.7534 15.308 98.9484 20.8333 98.9484V98.9484ZM152.771 41.6567C159.982 41.6567 167.03 43.7949 173.026 47.801C179.022 51.8071 183.694 57.5011 186.454 64.163C189.213 70.8249 189.935 78.1555 188.529 85.2277C187.122 92.2999 183.65 98.7962 178.551 103.895C173.452 108.994 166.956 112.466 159.884 113.873C152.811 115.28 145.481 114.558 138.819 111.798C132.157 109.039 126.463 104.366 122.457 98.3702C118.451 92.3747 116.313 85.3258 116.313 78.115C116.324 68.4491 120.168 59.1822 127.003 52.3473C133.838 45.5124 143.105 41.6677 152.771 41.6567V41.6567Z" fill="#C4D2DF"/>
<path d="M479.167 229.167H422.167C417.702 212.71 407.945 198.181 394.401 187.821C380.858 177.462 364.28 171.849 347.229 171.849C330.178 171.849 313.601 177.462 300.057 187.821C286.513 198.181 276.756 212.71 272.292 229.167H20.8333C15.308 229.167 10.009 231.362 6.10194 235.269C2.19493 239.176 0 244.475 0 250C0 255.525 2.19493 260.824 6.10194 264.731C10.009 268.638 15.308 270.833 20.8333 270.833H272.292C276.756 287.29 286.513 301.819 300.057 312.179C313.601 322.538 330.178 328.151 347.229 328.151C364.28 328.151 380.858 322.538 394.401 312.179C407.945 301.819 417.702 287.29 422.167 270.833H479.167C484.692 270.833 489.991 268.638 493.898 264.731C497.805 260.824 500 255.525 500 250C500 244.475 497.805 239.176 493.898 235.269C489.991 231.362 484.692 229.167 479.167 229.167ZM347.229 286.458C340.018 286.458 332.97 284.32 326.974 280.314C320.978 276.308 316.306 270.614 313.546 263.952C310.787 257.29 310.065 249.96 311.471 242.887C312.878 235.815 316.35 229.319 321.449 224.22C326.548 219.121 333.044 215.649 340.117 214.242C347.189 212.835 354.519 213.557 361.181 216.317C367.843 219.076 373.537 223.749 377.543 229.745C381.549 235.74 383.688 242.789 383.688 250C383.676 259.666 379.832 268.933 372.997 275.768C366.162 282.603 356.895 286.447 347.229 286.458V286.458Z" fill="#C4D2DF"/>
<path d="M479.167 401.042H227.729C223.258 384.589 213.496 370.065 199.952 359.71C186.407 349.355 169.831 343.745 152.781 343.745C135.732 343.745 119.156 349.355 105.611 359.71C92.0661 370.065 82.3049 384.589 77.8333 401.042H20.8333C15.308 401.042 10.009 403.237 6.10194 407.144C2.19493 411.051 0 416.35 0 421.875C0 427.4 2.19493 432.699 6.10194 436.606C10.009 440.513 15.308 442.708 20.8333 442.708H77.8333C82.3049 459.161 92.0661 473.685 105.611 484.04C119.156 494.395 135.732 500.005 152.781 500.005C169.831 500.005 186.407 494.395 199.952 484.04C213.496 473.685 223.258 459.161 227.729 442.708H479.167C484.692 442.708 489.991 440.513 493.898 436.606C497.805 432.699 500 427.4 500 421.875C500 416.35 497.805 411.051 493.898 407.144C489.991 403.237 484.692 401.042 479.167 401.042ZM152.771 458.333C145.56 458.333 138.511 456.195 132.516 452.189C126.52 448.183 121.847 442.489 119.088 435.827C116.328 429.165 115.606 421.835 117.013 414.762C118.42 407.69 121.892 401.194 126.991 396.095C132.09 390.996 138.586 387.524 145.658 386.117C152.73 384.71 160.061 385.432 166.723 388.192C173.385 390.951 179.079 395.624 183.085 401.62C187.091 407.615 189.229 414.664 189.229 421.875C189.213 431.539 185.366 440.803 178.533 447.637C171.699 454.47 162.435 458.317 152.771 458.333V458.333Z" fill="#C4D2DF"/>
</g>
<defs>
<clipPath id="clip0_134_81">
<rect width="500" height="500" fill="white"/>
</clipPath>
</defs>
</svg>
