<svg width="500" height="500" viewBox="0 0 500 500" fill="none" xmlns="http://www.w3.org/2000/svg">
<g clip-path="url(#clip0_134_62)">
<path d="M250 166.667C233.518 166.667 217.406 171.554 203.702 180.711C189.998 189.868 179.317 202.883 173.01 218.11C166.703 233.337 165.052 250.092 168.268 266.258C171.483 282.423 179.42 297.271 191.074 308.926C202.729 320.58 217.577 328.517 233.742 331.732C249.907 334.948 266.663 333.297 281.89 326.99C297.117 320.683 310.132 310.002 319.289 296.298C328.446 282.593 333.333 266.482 333.333 250C333.333 227.899 324.553 206.702 308.925 191.074C293.297 175.446 272.101 166.667 250 166.667V166.667ZM250 291.667C241.759 291.667 233.703 289.223 226.851 284.645C219.999 280.066 214.659 273.559 211.505 265.945C208.351 258.332 207.526 249.954 209.134 241.871C210.742 233.789 214.71 226.364 220.537 220.537C226.364 214.71 233.789 210.742 241.871 209.134C249.954 207.526 258.331 208.351 265.945 211.505C273.559 214.659 280.066 219.999 284.644 226.851C289.223 233.703 291.667 241.759 291.667 250C291.667 261.051 287.277 271.649 279.463 279.463C271.649 287.277 261.051 291.667 250 291.667Z" fill="white"/>
<path d="M443.625 289.583L434.375 284.25C438.539 261.593 438.539 238.366 434.375 215.708L443.625 210.375C450.738 206.271 456.974 200.807 461.975 194.293C466.976 187.779 470.646 180.345 472.774 172.413C474.902 164.481 475.447 156.208 474.377 148.066C473.308 139.924 470.646 132.072 466.542 124.958C462.438 117.845 456.973 111.61 450.46 106.608C443.946 101.607 436.511 97.9376 428.58 95.8096C420.648 93.6816 412.375 93.1367 404.233 94.206C396.09 95.2753 388.238 97.9379 381.125 102.042L371.854 107.396C354.345 92.4358 334.222 80.8385 312.5 73.1875V62.5C312.5 45.924 305.915 30.0269 294.194 18.3058C282.473 6.5848 266.576 0 250 0C233.424 0 217.527 6.5848 205.806 18.3058C194.085 30.0269 187.5 45.924 187.5 62.5V73.1875C165.779 80.866 145.664 92.4917 128.167 107.479L118.854 102.083C104.488 93.7953 87.4184 91.5536 71.3997 95.8513C55.3809 100.149 41.7256 110.634 33.4375 125C25.1495 139.366 22.9078 156.436 27.2055 172.455C31.5032 188.473 41.9883 202.129 56.3542 210.417L65.6042 215.75C61.4398 238.407 61.4398 261.634 65.6042 284.292L56.3542 289.625C41.9883 297.913 31.5032 311.568 27.2055 327.587C22.9078 343.606 25.1495 360.676 33.4375 375.042C41.7256 389.408 55.3809 399.893 71.3997 404.19C87.4184 408.488 104.488 406.246 118.854 397.958L128.125 392.604C145.641 407.566 165.77 419.164 187.5 426.813V437.5C187.5 454.076 194.085 469.973 205.806 481.694C217.527 493.415 233.424 500 250 500C266.576 500 282.473 493.415 294.194 481.694C305.915 469.973 312.5 454.076 312.5 437.5V426.813C334.221 419.134 354.337 407.508 371.833 392.521L381.146 397.896C395.512 406.184 412.582 408.426 428.6 404.128C444.619 399.83 458.275 389.345 466.563 374.979C474.851 360.613 477.092 343.543 472.795 327.525C468.497 311.506 458.012 297.851 443.646 289.563L443.625 289.583ZM390.542 210.917C397.597 236.481 397.597 263.478 390.542 289.042C389.31 293.491 389.591 298.224 391.34 302.496C393.09 306.768 396.209 310.339 400.208 312.646L422.792 325.688C427.579 328.45 431.074 333.002 432.506 338.341C433.937 343.679 433.19 349.369 430.427 354.156C427.664 358.944 423.113 362.438 417.774 363.87C412.435 365.302 406.746 364.554 401.958 361.792L379.333 348.708C375.331 346.39 370.671 345.47 366.088 346.092C361.506 346.715 357.26 348.844 354.021 352.146C335.477 371.076 312.116 384.583 286.458 391.208C281.98 392.36 278.012 394.968 275.179 398.623C272.346 402.278 270.81 406.772 270.813 411.396V437.5C270.813 443.025 268.618 448.324 264.711 452.231C260.804 456.138 255.505 458.333 249.979 458.333C244.454 458.333 239.155 456.138 235.248 452.231C231.341 448.324 229.146 443.025 229.146 437.5V411.417C229.148 406.793 227.612 402.299 224.779 398.644C221.947 394.989 217.979 392.381 213.5 391.229C187.841 384.577 164.486 371.041 145.958 352.083C142.719 348.782 138.474 346.652 133.891 346.03C129.308 345.408 124.648 346.328 120.646 348.646L98.0625 361.708C95.6923 363.098 93.0707 364.005 90.3485 364.377C87.6263 364.749 84.8574 364.579 82.2012 363.877C79.5449 363.175 77.0538 361.954 74.8713 360.285C72.6888 358.616 70.8579 356.532 69.4841 354.153C68.1104 351.773 67.2208 349.146 66.8666 346.421C66.5125 343.697 66.7008 340.929 67.4207 338.277C68.1405 335.626 69.3778 333.143 71.0611 330.971C72.7445 328.8 74.8408 326.983 77.2292 325.625L99.8125 312.583C103.811 310.276 106.931 306.706 108.68 302.434C110.43 298.161 110.711 293.429 109.479 288.979C102.424 263.415 102.424 236.418 109.479 210.854C110.689 206.414 110.395 201.699 108.642 197.444C106.889 193.189 103.777 189.633 99.7917 187.333L77.2084 174.292C72.4207 171.529 68.9265 166.978 67.4946 161.639C66.0627 156.3 66.8103 150.611 69.573 145.823C72.3356 141.035 76.8871 137.541 82.226 136.109C87.5649 134.677 93.254 135.425 98.0417 138.188L120.667 151.271C124.658 153.594 129.308 154.525 133.886 153.918C138.464 153.311 142.711 151.2 145.958 147.917C164.502 128.986 187.863 115.48 213.521 108.854C218.013 107.699 221.992 105.078 224.826 101.406C227.66 97.7344 229.188 93.2217 229.167 88.5833V62.5C229.167 56.9747 231.362 51.6756 235.269 47.7686C239.176 43.8616 244.475 41.6667 250 41.6667C255.525 41.6667 260.824 43.8616 264.731 47.7686C268.638 51.6756 270.833 56.9747 270.833 62.5V88.5833C270.831 93.2075 272.367 97.7009 275.2 101.356C278.033 105.011 282.001 107.619 286.479 108.771C312.146 115.42 335.508 128.956 354.042 147.917C357.281 151.218 361.526 153.348 366.109 153.97C370.692 154.593 375.352 153.672 379.354 151.354L401.938 138.292C404.308 136.902 406.929 135.995 409.652 135.623C412.374 135.251 415.143 135.421 417.799 136.123C420.455 136.825 422.946 138.046 425.129 139.715C427.311 141.384 429.142 143.468 430.516 145.847C431.89 148.227 432.779 150.854 433.133 153.579C433.488 156.304 433.299 159.071 432.579 161.723C431.86 164.374 430.622 166.857 428.939 169.029C427.256 171.2 425.159 173.017 422.771 174.375L400.188 187.417C396.209 189.723 393.106 193.281 391.361 197.535C389.616 201.79 389.328 206.502 390.542 210.938V210.917Z" fill="white"/>
</g>
<defs>
<clipPath id="clip0_134_62">
<rect width="500" height="500" fill="white"/>
</clipPath>
</defs>
</svg>
