<svg width="200" height="200" viewBox="0 0 200 200" fill="none" xmlns="http://www.w3.org/2000/svg">
<g clip-path="url(#clip0_133_38)">
<path d="M192.892 78.925L186.333 70C181.789 63.8161 175.856 58.785 169.013 55.3113C162.17 51.8377 154.608 50.0185 146.933 50H53.1917C45.6752 50.0196 38.2636 51.7647 31.528 55.1007C24.7923 58.4367 18.9125 63.2747 14.3417 69.2417L7.50001 78.1917C1.9457 85.5192 -0.665748 94.6598 0.179356 103.816C1.02446 112.971 5.26494 121.48 12.0667 127.667L78.65 191.892C84.4981 197.107 92.0643 199.982 99.9 199.967C107.902 199.951 115.617 196.984 121.567 191.633L187.7 128.025C194.541 121.968 198.867 113.569 199.828 104.483C200.789 95.3963 198.314 86.2791 192.892 78.925V78.925ZM172.892 79.8167L179.45 88.7667C180.109 89.6825 180.689 90.6526 181.183 91.6667H141.258C140.655 87.676 139.616 83.7637 138.158 80L132.825 66.6667H146.933C151.987 66.6762 156.968 67.8709 161.476 70.1547C165.985 72.4385 169.894 75.7477 172.892 79.8167ZM99.9167 167.4L76.8417 115.15C76.0071 112.94 75.3767 110.658 74.9584 108.333H124.558C124.209 110.166 123.718 111.968 123.092 113.725L99.9167 167.4ZM75.8334 91.6667C76.1819 90.1726 76.6187 88.7006 77.1417 87.2583L85.3417 66.6667H114.875L122.683 86.1917C123.369 87.9745 123.926 89.8042 124.35 91.6667H75.8334ZM27.5917 79.3417C30.6047 75.4112 34.4795 72.2246 38.9177 70.0272C43.3559 67.8297 48.2393 66.68 53.1917 66.6667H67.3584L61.6667 81.075C60.2935 84.4937 59.2688 88.0422 58.6084 91.6667H18.7083C19.2799 90.4888 19.9696 89.372 20.7667 88.3333L27.5917 79.3417ZM23.425 115.45C21.2511 113.478 19.5431 111.047 18.425 108.333H58.1917C58.7443 112.823 59.8269 117.232 61.4167 121.467L84.975 174.8L23.425 115.45ZM114.758 175.117L138.542 120C139.922 116.228 140.883 112.316 141.408 108.333H181.667C180.487 111.194 178.685 113.756 176.392 115.833L114.758 175.117Z" fill="white"/>
<path d="M99.9998 33.3333C102.21 33.3333 104.33 32.4554 105.892 30.8926C107.455 29.3298 108.333 27.2101 108.333 25V8.33333C108.333 6.1232 107.455 4.00358 105.892 2.44078C104.33 0.877974 102.21 0 99.9998 0C97.7897 0 95.6701 0.877974 94.1073 2.44078C92.5445 4.00358 91.6665 6.1232 91.6665 8.33333V25C91.6665 27.2101 92.5445 29.3298 94.1073 30.8926C95.6701 32.4554 97.7897 33.3333 99.9998 33.3333Z" fill="white"/>
<path d="M137.942 32.5C138.926 32.9947 139.998 33.2895 141.096 33.3673C142.195 33.4451 143.298 33.3044 144.341 32.9534C145.385 32.6024 146.349 32.048 147.177 31.3222C148.006 30.5964 148.682 29.7137 149.167 28.725L157.5 12.0583C158.488 10.0803 158.65 7.79075 157.95 5.69347C157.249 3.59619 155.745 1.86293 153.767 0.875003C151.789 -0.112929 149.499 -0.274611 147.402 0.425525C145.305 1.12566 143.571 2.63026 142.583 4.60834L134.25 21.275C133.752 22.2539 133.453 23.3214 133.369 24.4163C133.286 25.5112 133.419 26.6118 133.762 27.655C134.105 28.6981 134.651 29.6631 135.368 30.4946C136.086 31.3261 136.96 32.0076 137.942 32.5V32.5Z" fill="white"/>
<path d="M50.8752 28.725C51.8632 30.7086 53.5986 32.2185 55.6998 32.9225C57.801 33.6266 60.0958 33.4671 62.0794 32.4792C64.063 31.4912 65.5729 29.7558 66.2769 27.6546C66.981 25.5534 66.8215 23.2586 65.8336 21.275L57.5002 4.60834C57.0111 3.62889 56.3338 2.75539 55.507 2.0377C54.6802 1.32002 53.7202 0.772197 52.6818 0.425525C50.5845 -0.274611 48.295 -0.112929 46.3169 0.875003C44.3388 1.86293 42.8342 3.59619 42.1341 5.69347C41.4339 7.79075 41.5956 10.0803 42.5836 12.0583L50.8752 28.725Z" fill="white"/>
</g>
<defs>
<clipPath id="clip0_133_38">
<rect width="200" height="200" fill="white"/>
</clipPath>
</defs>
</svg>
