<svg width="502" height="374" viewBox="0 0 502 374" fill="none" xmlns="http://www.w3.org/2000/svg">
<path opacity="0.9" fill-rule="evenodd" clip-rule="evenodd" d="M251.312 1C216.229 1 187.788 29.3822 187.788 64.3934C187.788 72.7422 194.57 79.5103 202.936 79.5103C211.302 79.5103 218.084 72.7422 218.084 64.3934C218.084 46.0798 232.961 31.2338 251.312 31.2338C269.664 31.2338 284.54 46.0798 284.54 64.3934C284.54 76.7468 277.778 87.5434 267.674 93.2641C260.751 97.1835 253.2 102.561 247.22 109.553C241.175 116.62 236.164 126.058 236.164 137.54V152.747C236.045 152.814 235.927 152.882 235.808 152.951L27.5484 273.986C-19.4496 301.3 -0.0344477 373.07 54.3527 373.07H447.647C501.999 373.07 521.442 301.375 474.509 274.02L266.827 152.97C266.705 152.899 266.583 152.829 266.46 152.76V137.54C266.46 135.286 267.382 132.549 270.263 129.181C273.208 125.738 277.575 122.419 282.624 119.561C301.826 108.689 314.836 88.0671 314.836 64.3934C314.836 29.3822 286.396 1 251.312 1ZM251.055 179.077C251.207 178.989 251.395 178.989 251.547 179.077L459.23 300.127C479.467 311.922 471.083 342.837 447.647 342.837H54.3527C30.9015 342.837 22.5296 311.89 42.7949 300.112L251.055 179.077Z" fill="white" stroke="white"/>
</svg>
