<svg width="500" height="500" viewBox="0 0 500 500" fill="none" xmlns="http://www.w3.org/2000/svg">
<g clip-path="url(#clip0_134_73)">
<path d="M364.583 39.9375C341.124 40.3024 318.176 46.8511 298.058 58.9223C277.939 70.9935 261.362 88.1598 250 108.687C238.638 88.1598 222.061 70.9935 201.942 58.9223C181.824 46.8511 158.876 40.3024 135.417 39.9375C98.0196 41.5623 62.7856 57.922 37.4122 85.4423C12.0388 112.963 -1.41144 149.407 2.62328e-05 186.812C2.62328e-05 281.542 99.7084 385 183.333 455.146C202.005 470.836 225.612 479.438 250 479.438C274.388 479.438 297.995 470.836 316.667 455.146C400.292 385 500 281.542 500 186.812C501.411 149.407 487.961 112.963 462.588 85.4423C437.214 57.922 401.98 41.5623 364.583 39.9375ZM289.896 423.271C278.729 432.674 264.599 437.831 250 437.831C235.401 437.831 221.271 432.674 210.104 423.271C103.063 333.458 41.6667 247.292 41.6667 186.812C40.2425 160.452 49.2993 134.599 66.8618 114.89C84.4242 95.1806 109.067 83.2156 135.417 81.6042C161.766 83.2156 186.409 95.1806 203.972 114.89C221.534 134.599 230.591 160.452 229.167 186.812C229.167 192.338 231.362 197.637 235.269 201.544C239.176 205.451 244.475 207.646 250 207.646C255.525 207.646 260.824 205.451 264.731 201.544C268.638 197.637 270.833 192.338 270.833 186.812C269.409 160.452 278.466 134.599 296.028 114.89C313.591 95.1806 338.234 83.2156 364.583 81.6042C390.933 83.2156 415.576 95.1806 433.138 114.89C450.701 134.599 459.757 160.452 458.333 186.812C458.333 247.292 396.937 333.458 289.896 423.187V423.271Z" fill="black"/>
</g>
<defs>
<clipPath id="clip0_134_73">
<rect width="500" height="500" fill="white"/>
</clipPath>
</defs>
</svg>
