<svg width="500" height="500" viewBox="0 0 500 500" fill="none" xmlns="http://www.w3.org/2000/svg">
<g clip-path="url(#clip0_134_71)">
<path d="M481.688 188.937L323.667 30.8958C304.109 11.3956 277.618 0.445282 250 0.445282C222.382 0.445282 195.891 11.3956 176.333 30.8958L18.3125 188.937C12.488 194.725 7.87021 201.61 4.72673 209.196C1.58324 216.781 -0.0233775 224.914 7.51526e-06 233.125V437.646C7.51526e-06 454.222 6.58481 470.119 18.3058 481.84C30.0269 493.561 45.924 500.146 62.5 500.146H437.5C454.076 500.146 469.973 493.561 481.694 481.84C493.415 470.119 500 454.222 500 437.646V233.125C500.023 224.914 498.417 216.781 495.273 209.196C492.13 201.61 487.512 194.725 481.688 188.937V188.937ZM312.5 458.479H187.5V376.521C187.5 359.945 194.085 344.048 205.806 332.327C217.527 320.606 233.424 314.021 250 314.021C266.576 314.021 282.473 320.606 294.194 332.327C305.915 344.048 312.5 359.945 312.5 376.521V458.479ZM458.333 437.646C458.333 443.171 456.138 448.47 452.231 452.377C448.324 456.284 443.025 458.479 437.5 458.479H354.167V376.521C354.167 348.894 343.192 322.399 323.657 302.864C304.122 283.329 277.627 272.354 250 272.354C222.373 272.354 195.878 283.329 176.343 302.864C156.808 322.399 145.833 348.894 145.833 376.521V458.479H62.5C56.9747 458.479 51.6756 456.284 47.7686 452.377C43.8616 448.47 41.6667 443.171 41.6667 437.646V233.125C41.686 227.604 43.8789 222.312 47.7708 218.396L205.792 60.4167C217.535 48.7277 233.431 42.1655 250 42.1655C266.57 42.1655 282.465 48.7277 294.208 60.4167L452.229 218.458C456.106 222.359 458.298 227.625 458.333 233.125V437.646Z" fill="black"/>
</g>
<defs>
<clipPath id="clip0_134_71">
<rect width="500" height="500" fill="white"/>
</clipPath>
</defs>
</svg>
