<svg width="500" height="500" viewBox="0 0 500 500" fill="none" xmlns="http://www.w3.org/2000/svg">
<g clip-path="url(#clip0_134_51)">
<path d="M395.833 125H270.833V62.5C270.833 56.9746 268.638 51.6756 264.731 47.7686C260.824 43.8616 255.525 41.6667 250 41.6667C244.475 41.6667 239.176 43.8616 235.269 47.7686C231.362 51.6756 229.167 56.9746 229.167 62.5V125H104.167C76.5501 125.033 50.0741 136.018 30.5462 155.546C11.0184 175.074 0.0330804 201.55 0 229.167L0 312.5C0.0330804 340.117 11.0184 366.593 30.5462 386.12C50.0741 405.648 76.5501 416.634 104.167 416.667H395.833C423.45 416.634 449.926 405.648 469.454 386.12C488.982 366.593 499.967 340.117 500 312.5V229.167C499.967 201.55 488.982 175.074 469.454 155.546C449.926 136.018 423.45 125.033 395.833 125V125ZM458.333 312.5C458.333 329.076 451.749 344.973 440.028 356.694C428.307 368.415 412.409 375 395.833 375H104.167C87.5906 375 71.6935 368.415 59.9725 356.694C48.2515 344.973 41.6667 329.076 41.6667 312.5V229.167C41.6667 212.591 48.2515 196.694 59.9725 184.972C71.6935 173.251 87.5906 166.667 104.167 166.667H395.833C412.409 166.667 428.307 173.251 440.028 184.972C451.749 196.694 458.333 212.591 458.333 229.167V312.5Z" fill="white"/>
<path d="M312.5 291.667H187.5C181.974 291.667 176.675 293.862 172.768 297.769C168.861 301.676 166.667 306.975 166.667 312.5C166.667 318.025 168.861 323.324 172.768 327.231C176.675 331.138 181.974 333.333 187.5 333.333H312.5C318.025 333.333 323.324 331.138 327.231 327.231C331.138 323.324 333.333 318.025 333.333 312.5C333.333 306.975 331.138 301.676 327.231 297.769C323.324 293.862 318.025 291.667 312.5 291.667Z" fill="white"/>
<path d="M208.333 250H229.167C234.692 250 239.991 247.805 243.898 243.898C247.805 239.991 250 234.692 250 229.167C250 223.641 247.805 218.342 243.898 214.435C239.991 210.528 234.692 208.333 229.167 208.333H208.333C202.808 208.333 197.509 210.528 193.602 214.435C189.695 218.342 187.5 223.641 187.5 229.167C187.5 234.692 189.695 239.991 193.602 243.898C197.509 247.805 202.808 250 208.333 250V250Z" fill="white"/>
<path d="M395.833 208.333H312.5C306.974 208.333 301.675 210.528 297.768 214.435C293.861 218.342 291.667 223.641 291.667 229.167C291.667 234.692 293.861 239.991 297.768 243.898C301.675 247.805 306.974 250 312.5 250H395.833C401.359 250 406.658 247.805 410.565 243.898C414.472 239.991 416.667 234.692 416.667 229.167C416.667 223.641 414.472 218.342 410.565 214.435C406.658 210.528 401.359 208.333 395.833 208.333Z" fill="white"/>
<path d="M125 208.333H104.167C98.6415 208.333 93.3425 210.528 89.4354 214.435C85.5284 218.342 83.3335 223.641 83.3335 229.167C83.3335 234.692 85.5284 239.991 89.4354 243.898C93.3425 247.805 98.6415 250 104.167 250H125C130.526 250 135.825 247.805 139.732 243.898C143.639 239.991 145.833 234.692 145.833 229.167C145.833 223.641 143.639 218.342 139.732 214.435C135.825 210.528 130.526 208.333 125 208.333Z" fill="white"/>
<path d="M104.167 333.333C115.673 333.333 125 324.006 125 312.5C125 300.994 115.673 291.667 104.167 291.667C92.6609 291.667 83.3335 300.994 83.3335 312.5C83.3335 324.006 92.6609 333.333 104.167 333.333Z" fill="white"/>
<path d="M395.833 333.333C407.339 333.333 416.667 324.006 416.667 312.5C416.667 300.994 407.339 291.667 395.833 291.667C384.327 291.667 375 300.994 375 312.5C375 324.006 384.327 333.333 395.833 333.333Z" fill="white"/>
</g>
<defs>
<clipPath id="clip0_134_51">
<rect width="500" height="500" fill="white"/>
</clipPath>
</defs>
</svg>
