<svg width="500" height="500" viewBox="0 0 500 500" fill="none" xmlns="http://www.w3.org/2000/svg">
<path d="M91.6774 71.4271C80.4995 71.4271 71.4374 80.4877 71.4374 91.6649C71.4374 102.841 80.4995 111.903 91.6774 111.903C102.85 111.903 111.912 102.841 111.912 91.6649C111.912 80.4877 102.85 71.4271 91.6774 71.4271Z" fill="black"/>
<path d="M142.865 91.6649C142.865 80.4877 151.927 71.4271 163.105 71.4271C174.277 71.4271 183.339 80.4877 183.339 91.6649C183.339 102.841 174.277 111.903 163.105 111.903C151.927 111.903 142.865 102.841 142.865 91.6649Z" fill="black"/>
<path d="M234.532 71.4271C223.354 71.4271 214.292 80.4877 214.292 91.6649C214.292 102.841 223.354 111.903 234.532 111.903C245.704 111.903 254.766 102.841 254.766 91.6649C254.766 80.4877 245.704 71.4271 234.532 71.4271Z" fill="black"/>
<path d="M115.486 238.09C104.309 238.09 95.2465 247.151 95.2465 258.328C95.2465 269.505 104.309 278.566 115.486 278.566H384.524C395.702 278.566 404.764 269.505 404.764 258.328C404.764 247.151 395.702 238.09 384.524 238.09H115.486Z" fill="black"/>
<path d="M95.2465 353.564C95.2465 342.387 104.309 333.326 115.486 333.326H265.479C276.657 333.326 285.719 342.387 285.719 353.564C285.719 364.741 276.657 373.802 265.479 373.802H115.486C104.309 373.802 95.2465 364.741 95.2465 353.564Z" fill="black"/>
<path fill-rule="evenodd" clip-rule="evenodd" d="M0.0103338 166.663V333.326C0.0103338 411.892 0.0103341 451.175 24.4181 475.583C48.8258 499.99 88.1084 499.99 166.674 499.99H333.337C411.902 499.99 451.185 499.99 475.592 475.583C500 451.175 500 411.892 500 333.326V145.235C499.797 80.7398 497.675 46.4868 475.592 24.407C451.185 0 411.902 0 333.337 0H166.674C88.1084 0 48.8258 0 24.4181 24.407C2.33543 46.4868 0.21378 80.7398 0.0103338 145.235C-0.0129172 152.035 0.0103338 159.171 0.0103338 166.663ZM333.337 40.4756H166.674C126.246 40.4756 99.9955 40.5614 80.6274 43.1655C62.4277 45.6127 56.4696 49.598 53.0401 53.0276C49.6105 56.4578 45.623 62.4151 43.1758 80.6192C41.0658 96.3311 40.6066 116.571 40.5078 145.235H459.503C459.404 116.571 458.945 96.3311 456.835 80.6192C454.387 62.4151 450.4 56.4578 446.97 53.0276C443.541 49.598 437.583 45.6127 419.383 43.1655C400.015 40.5614 373.764 40.4756 333.337 40.4756ZM459.526 333.326V185.711H40.4845V333.326C40.4845 373.753 40.5717 400.002 43.1758 419.37C45.623 437.574 49.6105 443.532 53.0401 446.962C56.4696 450.392 62.4277 454.377 80.6274 456.824C99.9955 459.428 126.246 459.514 166.674 459.514H333.337C373.764 459.514 400.015 459.428 419.383 456.824C437.583 454.377 443.541 450.392 446.97 446.962C450.4 443.532 454.387 437.574 456.835 419.37C459.439 400.002 459.526 373.753 459.526 333.326Z" fill="black"/>
</svg>
