<svg width="500" height="500" viewBox="0 0 500 500" fill="none" xmlns="http://www.w3.org/2000/svg">
<g clip-path="url(#clip0_134_59)">
<path d="M479.167 250C479.167 255.525 476.972 260.824 473.065 264.731C469.158 268.638 463.859 270.833 458.333 270.833H398.541C387.776 270.798 377.201 267.998 367.829 262.701C358.457 257.404 350.603 249.788 345.021 240.583L316.521 193.271L285.542 268.75C284.505 271.282 282.979 273.585 281.052 275.528C279.125 277.47 276.835 279.014 274.311 280.071C271.787 281.128 269.08 281.678 266.344 281.689C263.608 281.7 260.896 281.172 258.364 280.135C255.832 279.099 253.529 277.573 251.587 275.646C249.644 273.719 248.1 271.428 247.043 268.905C245.986 266.381 245.436 263.674 245.425 260.938C245.414 258.202 245.942 255.49 246.979 252.958L282.396 166.667H242L199 271.5C197.138 276.03 196.932 281.072 198.418 285.739C199.904 290.406 202.987 294.401 207.125 297.021L302.792 357.438C305.758 359.311 308.202 361.903 309.9 364.973C311.597 368.043 312.491 371.492 312.5 375V479.167C312.5 484.692 310.305 489.991 306.398 493.898C302.491 497.805 297.192 500 291.667 500C286.141 500 280.842 497.805 276.935 493.898C273.028 489.991 270.833 484.692 270.833 479.167V386.479L184.875 332.313C172.431 324.462 163.156 312.474 158.682 298.457C154.208 284.441 154.822 269.295 160.417 255.687L196.958 166.667H150.75C146.881 166.652 143.086 167.722 139.794 169.755C136.502 171.787 133.845 174.701 132.125 178.167L101.979 238.479C100.756 240.928 99.0628 243.112 96.9959 244.906C94.9291 246.7 92.529 248.07 89.9328 248.936C87.3367 249.803 84.5952 250.15 81.865 249.957C79.1348 249.764 76.4693 249.035 74.0207 247.813C71.5721 246.59 69.3883 244.896 67.5941 242.829C65.7999 240.763 64.4303 238.362 63.5636 235.766C62.697 233.17 62.3501 230.429 62.5429 227.698C62.7357 224.968 63.4644 222.303 64.6873 219.854L94.854 159.437C100.029 149.053 108.007 140.324 117.885 134.238C127.763 128.152 139.147 124.952 150.75 125H288.729C299.503 125.032 310.088 127.833 319.467 133.134C328.847 138.435 336.706 146.058 342.292 155.271L380.708 219.083C382.569 222.15 385.186 224.687 388.309 226.452C391.431 228.218 394.955 229.152 398.541 229.167H458.333C463.859 229.167 469.158 231.362 473.065 235.269C476.972 239.176 479.167 244.475 479.167 250ZM164.062 350.292C161.522 349.275 158.807 348.769 156.071 348.802C153.335 348.835 150.632 349.407 148.117 350.484C145.602 351.562 143.324 353.124 141.413 355.082C139.502 357.04 137.995 359.355 136.979 361.896C135.448 365.775 132.781 369.101 129.327 371.439C125.874 373.778 121.795 375.019 117.625 375H62.4998C56.9745 375 51.6755 377.195 47.7684 381.102C43.8614 385.009 41.6665 390.308 41.6665 395.833C41.6665 401.359 43.8614 406.658 47.7684 410.565C51.6755 414.472 56.9745 416.667 62.4998 416.667H117.625C130.127 416.706 142.351 412.978 152.704 405.97C163.056 398.961 171.058 388.997 175.667 377.375C176.683 374.835 177.189 372.119 177.156 369.383C177.123 366.647 176.552 363.945 175.474 361.43C174.397 358.915 172.834 356.637 170.876 354.726C168.918 352.815 166.603 351.308 164.062 350.292V350.292ZM312.5 104.167C322.801 104.167 332.871 101.112 341.436 95.389C350.001 89.666 356.676 81.5317 360.619 72.0148C364.561 62.4978 365.592 52.0256 363.582 41.9224C361.573 31.8192 356.612 22.5388 349.328 15.2548C342.044 7.97086 332.764 3.01041 322.661 1.00076C312.558 -1.00889 302.085 0.0225364 292.568 3.9646C283.051 7.90667 274.917 14.5823 269.194 23.1474C263.471 31.7124 260.417 41.7822 260.417 52.0833C260.417 65.8967 265.904 79.1443 275.671 88.9118C285.439 98.6793 298.686 104.167 312.5 104.167Z" fill="white"/>
</g>
<defs>
<clipPath id="clip0_134_59">
<rect width="500" height="500" fill="white"/>
</clipPath>
</defs>
</svg>
