<svg width="418" height="500" viewBox="0 0 418 500" fill="none" xmlns="http://www.w3.org/2000/svg">
<path d="M167.333 375.001C172.859 375.001 178.158 372.806 182.065 368.899C185.972 364.992 188.167 359.693 188.167 354.168V229.168C188.167 223.642 185.972 218.343 182.065 214.436C178.158 210.529 172.859 208.334 167.333 208.334C161.808 208.334 156.509 210.529 152.602 214.436C148.695 218.343 146.5 223.642 146.5 229.168V354.168C146.5 359.693 148.695 364.992 152.602 368.899C156.509 372.806 161.808 375.001 167.333 375.001Z" fill="black"/>
<path d="M265.402 368.899C261.495 372.806 256.196 375.001 250.671 375.001C245.145 375.001 239.846 372.806 235.939 368.899C232.032 364.992 229.837 359.693 229.837 354.168V229.168C229.837 223.642 232.032 218.343 235.939 214.436C239.846 210.529 245.145 208.334 250.671 208.334C256.196 208.334 261.495 210.529 265.402 214.436C269.309 218.343 271.504 223.642 271.504 229.168V354.168C271.504 359.693 269.309 364.992 265.402 368.899Z" fill="black"/>
<path fill-rule="evenodd" clip-rule="evenodd" d="M396.496 83.3333H331.913C327.077 59.8211 314.284 38.6947 295.689 23.515C277.093 8.33521 253.833 0.0303026 229.829 0H188.163C164.158 0.0303026 140.898 8.33521 122.303 23.515C103.708 38.6947 90.9146 59.8211 86.0792 83.3333H21.4959C15.9706 83.3333 10.6715 85.5283 6.76454 89.4353C2.85753 93.3423 0.662598 98.6413 0.662598 104.167C0.662598 109.692 2.85753 114.991 6.76454 118.898C10.6715 122.805 15.9706 125 21.4959 125H42.3293V395.833C42.3623 423.45 53.3476 449.926 72.8755 469.454C92.4034 488.982 118.879 499.967 146.496 500H271.496C299.112 499.967 325.588 488.982 345.116 469.454C364.644 449.926 375.629 423.45 375.663 395.833V125H396.496C402.021 125 407.32 122.805 411.227 118.898C415.134 114.991 417.329 109.692 417.329 104.167C417.329 98.6413 415.134 93.3423 411.227 89.4353C407.32 85.5283 402.021 83.3333 396.496 83.3333ZM188.163 41.6667H229.829C242.752 41.6824 255.353 45.6953 265.904 53.1551C276.456 60.6148 284.442 71.1561 288.767 83.3333H129.225C133.55 71.1561 141.536 60.6148 152.087 53.1551C162.639 45.6953 175.24 41.6824 188.163 41.6667ZM333.996 395.833C333.996 412.409 327.411 428.306 315.69 440.028C303.969 451.748 288.072 458.333 271.496 458.333H146.496C129.92 458.333 114.023 451.748 102.302 440.028C90.5807 428.306 83.9959 412.409 83.9959 395.833V125H333.996V395.833Z" fill="black"/>
</svg>
