<svg width="500" height="500" viewBox="0 0 500 500" fill="none" xmlns="http://www.w3.org/2000/svg">
<g clip-path="url(#clip0_134_65)">
<path d="M448.271 303.458C477.036 303.458 500.354 280.14 500.354 251.375C500.354 222.61 477.036 199.292 448.271 199.292C419.506 199.292 396.188 222.61 396.188 251.375C396.188 280.14 419.506 303.458 448.271 303.458Z" fill="white"/>
<path d="M250 302.083C278.765 302.083 302.083 278.765 302.083 250C302.083 221.235 278.765 197.917 250 197.917C221.235 197.917 197.917 221.235 197.917 250C197.917 278.765 221.235 302.083 250 302.083Z" fill="white"/>
<path d="M52.0833 302.083C80.8482 302.083 104.167 278.765 104.167 250C104.167 221.235 80.8482 197.917 52.0833 197.917C23.3185 197.917 0 221.235 0 250C0 278.765 23.3185 302.083 52.0833 302.083Z" fill="white"/>
</g>
<defs>
<clipPath id="clip0_134_65">
<rect width="500" height="500" fill="white"/>
</clipPath>
</defs>
</svg>
