<svg width="500" height="500" viewBox="0 0 500 500" fill="none" xmlns="http://www.w3.org/2000/svg">
<g clip-path="url(#clip0_134_76)">
<path d="M250 250C274.723 250 298.89 242.669 319.446 228.934C340.002 215.199 356.024 195.676 365.485 172.835C374.946 149.995 377.421 124.861 372.598 100.614C367.775 76.3661 355.87 54.0932 338.388 36.6116C320.907 19.1301 298.634 7.22499 274.386 2.40184C250.139 -2.42132 225.005 0.0540997 202.165 9.51505C179.324 18.976 159.801 34.9976 146.066 55.5537C132.331 76.1099 125 100.277 125 125C125.033 158.142 138.213 189.917 161.648 213.352C185.083 236.787 216.858 249.967 250 250ZM250 41.6667C266.482 41.6667 282.593 46.5541 296.298 55.7109C310.002 64.8676 320.683 77.8825 326.99 93.1097C333.297 108.337 334.948 125.092 331.732 141.258C328.517 157.423 320.58 172.271 308.926 183.926C297.271 195.58 282.423 203.517 266.258 206.732C250.092 209.948 233.337 208.297 218.11 201.99C202.883 195.683 189.868 185.002 180.711 171.298C171.554 157.593 166.667 141.482 166.667 125C166.667 102.899 175.446 81.7025 191.074 66.0744C206.702 50.4464 227.899 41.6667 250 41.6667V41.6667Z" fill="black"/>
<path d="M250 291.667C200.289 291.722 152.63 311.494 117.478 346.645C82.3273 381.796 62.5551 429.455 62.5 479.167C62.5 484.692 64.6949 489.991 68.6019 493.898C72.5089 497.805 77.808 500 83.3333 500C88.8587 500 94.1577 497.805 98.0647 493.898C101.972 489.991 104.167 484.692 104.167 479.167C104.167 440.489 119.531 403.396 146.88 376.047C174.229 348.698 211.323 333.333 250 333.333C288.677 333.333 325.771 348.698 353.12 376.047C380.469 403.396 395.833 440.489 395.833 479.167C395.833 484.692 398.028 489.991 401.935 493.898C405.842 497.805 411.141 500 416.667 500C422.192 500 427.491 497.805 431.398 493.898C435.305 489.991 437.5 484.692 437.5 479.167C437.445 429.455 417.673 381.796 382.522 346.645C347.371 311.494 299.711 291.722 250 291.667V291.667Z" fill="black"/>
</g>
<defs>
<clipPath id="clip0_134_76">
<rect width="500" height="500" fill="white"/>
</clipPath>
</defs>
</svg>
